<mxfile host="app.diagrams.net" modified="2024-01-03T06:29:21.616Z" agent="Mozilla/5.0 (Windows NT 10.0; Win64; x64) AppleWebKit/537.36 (KHTML, like Gecko) Chrome/120.0.0.0 Safari/537.36" version="22.1.15" etag="BKw0X8evkWOI77XGdA7G" type="github">
  <diagram name="Page-1" id="gmcIMclPL37dWn9I4Ugq">
    <mxGraphModel>
      <root>
        <mxCell id="0" />
        <mxCell id="1" parent="0" />
      </root>
    </mxGraphModel>
  </diagram>
</mxfile>
